<svg xmlns="http://www.w3.org/2000/svg" width="64" height="71.999" viewBox="0 0 64 71.999"><path d="M62,68H2a2,2,0,0,1-2-2V2A2,2,0,0,1,2,0H62a2,2,0,0,1,2,2V66A2,2,0,0,1,62,68ZM5,5V63H59V5Z" transform="translate(0 4)" fill="#fff"/><path d="M62,68H2a2,2,0,0,1-2-2V2A2,2,0,0,1,2,0H62a2,2,0,0,1,2,2V66A2,2,0,0,1,62,68ZM3,3V65H61V3Z" transform="translate(0 4)" fill="#444"/><path d="M120.257,63.393s-9.248,22.8-32,29V85.011s15.935-2.636,29.858-21.618Z" transform="translate(-88.257 -57.393)" fill="#666"/><path d="M120.257,55.724s-9.248,22.8-32,29V77.342s15.935-2.636,29.858-21.618Z" transform="translate(-88.257 -50.724)" fill="#444"/><path d="M330,63.393s9.247,22.8,32,29V85.011s-15.935-2.636-29.858-21.618Z" transform="translate(-298 -57.393)" fill="#666"/><path d="M330,55.724s9.247,22.8,32,29V77.342s-15.935-2.636-29.858-21.618Z" transform="translate(-298 -50.724)" fill="#444"/><g transform="translate(21 0)"><g transform="translate(-323.424 -25.385)" fill="#444" stroke-miterlimit="10"><path d="M 343.836181640625 34.8849983215332 C 342.5919799804688 34.8849983215332 340.7529602050781 34.36097717285156 339.0367431640625 33.51742935180664 C 337.2227172851562 32.62580108642578 335.8106384277344 31.52220344543457 335.0204467773438 30.3849925994873 C 335.8106079101562 29.24765586853027 337.2225646972656 28.1441764831543 339.0367126464844 27.25250816345215 C 340.7528991699219 26.40899848937988 342.5919189453125 25.8849983215332 343.8361206054688 25.8849983215332 C 343.9801025390625 25.8849983215332 344.1142883300781 25.89237785339355 344.2350463867188 25.90693855285645 C 346.11328125 26.13335800170898 345.9174194335938 30.31313896179199 345.9149169921875 30.35528755187988 L 345.9131469726562 30.3849983215332 L 345.9149169921875 30.41470909118652 C 345.9173583984375 30.45657920837402 346.1084289550781 34.63708877563477 344.2350463867188 34.86305999755859 C 344.1143188476562 34.87761688232422 343.9801025390625 34.8849983215332 343.836181640625 34.8849983215332 Z" stroke="none"/><path d="M 343.8360900878906 26.38499450683594 C 342.6813354492188 26.38499450683594 340.8840026855469 26.90167617797852 339.2571716308594 27.70129776000977 C 337.6977233886719 28.46780395507812 336.41845703125 29.42305755615234 335.6455688476562 30.38499450683594 C 336.4185180664062 31.34693145751953 337.6978149414062 32.30218505859375 339.2572937011719 33.06869506835938 C 340.8841247558594 33.86831665039062 342.6814575195312 34.38499450683594 343.836181640625 34.38499450683594 C 343.9601745605469 34.38499450683594 344.0742492675781 34.37882614135742 344.1751708984375 34.36665725708008 C 344.8074951171875 34.29038619995117 345.1172180175781 33.36724853515625 345.2656555175781 32.60625457763672 C 345.474853515625 31.53401565551758 345.4163513183594 30.45400619506836 345.4158020019531 30.44442558288574 L 345.4124145507812 30.38499641418457 L 345.4157409667969 30.32678604125977 C 345.4163513183594 30.31600570678711 345.474853515625 29.2359561920166 345.2656555175781 28.16367721557617 C 345.1172180175781 27.40269470214844 344.8075256347656 26.47956466674805 344.1752014160156 26.40334701538086 C 344.0742492675781 26.39116668701172 343.9601745605469 26.38499450683594 343.8361206054688 26.38499450683594 L 343.8360900878906 26.38499450683594 M 343.8361206054688 25.38499069213867 C 343.9993591308594 25.38499450683594 344.1528015136719 25.39339447021484 344.294921875 25.41053771972656 C 346.6929016113281 25.69960784912109 346.4140319824219 30.38500595092773 346.4140319824219 30.38500595092773 C 346.4140319824219 30.38500595092773 346.6929016113281 35.07021713256836 344.294921875 35.35945892333984 C 341.896728515625 35.64866256713867 336.2884216308594 33.44970703125 334.4239501953125 30.38500595092773 C 336.1779174804688 27.50176620483398 341.2451477050781 25.38497543334961 343.8361206054688 25.38499069213867 Z" stroke="none" fill="#666"/></g><g transform="translate(-244.971 -25.385)" fill="#444" stroke-miterlimit="10"><path d="M 246.5593719482422 34.8849983215332 C 246.4154357910156 34.8849983215332 246.2812347412109 34.87761688232422 246.1604919433594 34.86305999755859 C 244.2870941162109 34.63708877563477 244.4780883789062 30.45656776428223 244.4805297851562 30.41439819335938 L 244.4822540283203 30.3849983215332 L 244.4805145263672 30.35529899597168 C 244.4780883789062 30.31342887878418 244.2870941162109 26.13276863098145 246.1604614257812 25.90694808959961 C 246.2812347412109 25.89237785339355 246.4154510498047 25.8849983215332 246.5594024658203 25.8849983215332 C 247.8036193847656 25.8849983215332 249.6426391601562 26.40899848937988 251.3587951660156 27.25250816345215 C 253.1729431152344 28.14418601989746 254.5848999023438 29.24765968322754 255.375 30.38498878479004 C 254.5848846435547 31.52227401733398 253.1729278564453 32.625732421875 251.3587799072266 33.51742935180664 C 249.642578125 34.36097717285156 247.8035583496094 34.8849983215332 246.5593719482422 34.8849983215332 Z" stroke="none"/><path d="M 246.5593872070312 26.38499450683594 C 246.4353485107422 26.38499450683594 246.3212738037109 26.39116668701172 246.2202911376953 26.40334701538086 C 245.5879974365234 26.47956466674805 245.2782745361328 27.40270614624023 245.1298065185547 28.1636962890625 C 244.9205932617188 29.23596572875977 244.9790954589844 30.31602668762207 244.9796295166016 30.32561683654785 L 244.9830322265625 30.3850154876709 L 244.9797058105469 30.44320678710938 C 244.9790954589844 30.45398712158203 244.9205932617188 31.53399658203125 245.1298065185547 32.60623550415039 C 245.2782745361328 33.36723709106445 245.5880279541016 34.29037475585938 246.2203369140625 34.36664581298828 C 246.3212738037109 34.37882614135742 246.4353485107422 34.38499450683594 246.5593566894531 34.38499450683594 C 247.7140808105469 34.38499450683594 249.5113983154297 33.86831665039062 251.1382141113281 33.06869506835938 C 252.6977081298828 32.30218505859375 253.9769897460938 31.3469181060791 254.7498931884766 30.38498878479004 C 253.9769897460938 29.42302513122559 252.6977081298828 28.46773910522461 251.1382446289062 27.70123672485352 C 249.5114593505859 26.90165710449219 247.7141571044922 26.38499450683594 246.5593872070312 26.38499450683594 M 246.5593872070312 25.38499069213867 C 249.1503753662109 25.38499069213867 254.2176208496094 27.50176620483398 255.9714813232422 30.38500595092773 C 254.1071319580078 33.44968795776367 248.4985656738281 35.648681640625 246.1006164550781 35.35945892333984 C 243.7026214599609 35.07021713256836 243.9813995361328 30.38500595092773 243.9813995361328 30.38500595092773 C 243.9813995361328 30.38500595092773 243.7026214599609 25.69960784912109 246.1006164550781 25.41053771972656 C 246.2427368164062 25.39339447021484 246.3961639404297 25.38499069213867 246.5593872070312 25.38499069213867 Z" stroke="none" fill="#666"/></g><g transform="translate(7 1)" fill="#444" stroke="#666" stroke-miterlimit="10" stroke-width="1"><circle cx="4" cy="4" r="4" stroke="none"/><circle cx="4" cy="4" r="3.5" fill="none"/></g></g></svg>